<svg id="Layer_1" data-name="Layer 1" xmlns="http://www.w3.org/2000/svg" viewBox="0 0 458.26 458"><defs><style>.cls-1,.cls-4{fill:#c02b40;}.cls-1,.cls-2{isolation:isolate;}.cls-3{fill:#ffd897;}</style></defs><path class="cls-1" d="M86.72,437.54c8.46-2.63,19,6.18,26.21,20.67l26.34-11.49a174.25,174.25,0,0,1-.68-101.51l-15.2-4.11c-5.76,13.33-15.32,21.77-22.48,19.28-7.86-2.74-9.82-17.62-4.39-33.24s16.2-26.07,24.06-23.34c6.73,2.34,9.14,13.63,6.26,26.65l15.31,4.14a173.71,173.71,0,0,1,61.19-80.31l-9.53-15.18c-16.9,7.83-33.16,7.8-38.07-.69-5.51-9.54,5.4-26.16,24.38-37.11s38.82-12.1,44.33-2.56c4.67,8.08-2.46,21.25-16.29,31.75l9.2,14.66a173.68,173.68,0,0,1,147.28-12.89l10.5-26c-16.91-8.47-27.18-21.48-23.48-30.68,4.12-10.22,23.93-11.87,44.25-3.68s33.46,23.11,29.34,33.33c-3.44,8.56-17.9,11.11-34.44,6.9L380,238.81a173.84,173.84,0,0,1,66.85,57.08L451.2,293l9.51-6.45,1.61-1.09-.49-.89-1.55,1.23c-6.2-10.91-6.45-22.38-.09-27,7.22-5.29,20.22.21,29.05,12.26s10.13,26.12,2.91,31.4c-5.61,4.11-14.71,1.71-22.63-5.23l1.08-.85-.31-.3-1.18.8L454.05,307c.32.55.64,1.1.95,1.65a172.39,172.39,0,0,1,22.93,86.19,174.47,174.47,0,0,1-3.13,32.95l23.09,5.46c5.54-16.58,16-27.66,25-25.54,10.06,2.38,14.37,20.53,9.64,40.54s-16.74,34.29-26.8,31.91c-8.18-1.94-12.56-14.31-11.36-29.63l-23.78-5.63a173.56,173.56,0,0,1-78.1,99.32l11.78,23.26c14.74-5.08,28.62-3.09,32.95,5.46,5.06,10-4.85,25.19-22.14,33.94s-35.4,7.74-40.46-2.26c-4.33-8.55,2.29-20.91,15.12-29.78l1,2,.65-.39-1.06-2L378.4,551.71l-.31.14A173.69,173.69,0,0,1,227.35,550l-16.94,34.64c16.59,10,26,24.34,21.34,33.19-5,9.47-24.39,9-43.23-1s-30-25.79-25-35.26c3.94-7.42,16.65-8.77,31-4.2l17.6-36a173.92,173.92,0,0,1-66.83-78.31L118.8,474.66c4.37,18.64.85,35.11-8.68,38.08C99.67,516,86,501.79,79.51,481S76.28,440.79,86.72,437.54Z" transform="translate(-76.18 -166.66)"/><g class="cls-2"><circle class="cls-3" cx="133.58" cy="308.16" r="31.18"/><circle class="cls-3" cx="190.52" cy="222.7" r="24.31"/><circle class="cls-3" cx="128.53" cy="151.78" r="21.78"/><circle class="cls-3" cx="232.87" cy="122.04" r="41.5"/><circle class="cls-3" cx="332.69" cy="166.83" r="25.22"/><circle class="cls-3" cx="334.69" cy="269.02" r="32.56"/><circle class="cls-3" cx="229.87" cy="341.56" r="26.37"/></g><path class="cls-4" d="M220.89,216.44l-.6.41-1.06-2,.65-.39Z" transform="translate(-76.18 -166.66)"/></svg>